<?xml version="1.0" encoding="UTF-8" standalone="no"?>
<!DOCTYPE svg PUBLIC "-//W3C//DTD SVG 1.1//EN" "http://www.w3.org/Graphics/SVG/1.1/DTD/svg11.dtd">
<svg width="100%" height="100%" viewBox="0 0 333 105" version="1.1" xmlns="http://www.w3.org/2000/svg" xmlns:xlink="http://www.w3.org/1999/xlink" xml:space="preserve" xmlns:serif="http://www.serif.com/" style="fill-rule:evenodd;clip-rule:evenodd;stroke-linejoin:round;stroke-miterlimit:2;">
    <g transform="matrix(1,0,0,1,-7.10543e-15,-115)">
        <g id="Artboard1" transform="matrix(0.870748,0,0,1,7.10543e-15,115)">
            <rect x="0" y="0" width="382.43" height="104.63" style="fill:none;"/>
            <g id="Layer_1" transform="matrix(1.14844,0,0,1,0,0)">
                <path d="M140.76,52.2L134.32,52.2L134.32,76.2L125.32,76.2L125.32,52.2L120.67,52.2L120.67,44.49L125.32,44.49L125.32,41.49C125.32,33.72 130.17,29.73 137.55,29.73C138.691,29.741 139.828,29.875 140.94,30.13L140.94,39.13C139.966,38.745 138.928,38.545 137.88,38.54C137.797,38.534 137.714,38.53 137.63,38.53C135.831,38.53 134.35,40.011 134.35,41.81C134.35,41.894 134.354,41.977 134.36,42.06L134.36,44.45L140.8,44.45L140.76,52.2ZM154.32,76.2L145.22,76.2L145.22,30.4L154.32,30.4L154.32,76.2Z" style="fill-rule:nonzero;"/>
                <path d="M174.52,42.5C174.53,42.5 174.54,42.5 174.55,42.5C184.008,42.5 191.79,50.282 191.79,59.74C191.79,69.198 184.008,76.98 174.55,76.98C165.092,76.98 157.31,69.198 157.31,59.74C157.31,59.73 157.31,59.72 157.31,59.71C157.309,59.64 157.309,59.569 157.309,59.499C157.309,50.173 164.983,42.499 174.309,42.499C174.379,42.499 174.45,42.499 174.52,42.5ZM174.52,68.14C179.17,68.14 182.52,64.29 182.52,59.71C182.52,55.13 179.2,51.33 174.52,51.33C170.018,51.485 166.4,55.231 166.4,59.735C166.4,64.239 170.018,67.985 174.52,68.14Z" style="fill-rule:nonzero;"/>
                <path d="M201.23,43.16L207.07,65.16L212.92,47.69L211.33,43.17L220.33,43.17L228.04,65.17L233.76,43.17L243.12,43.17L233.29,76.26L223.86,76.26L217.28,58.12L211.17,76.26L201.67,76.26L191.9,43.17L201.23,43.16Z" style="fill-rule:nonzero;"/>
                <circle cx="53.08" cy="52.32" r="50" style="fill:rgb(0,239,139);"/>
                <rect x="60.91" y="44.49" width="14.12" height="14.12" style="fill:white;"/>
                <path d="M46.79,63.9C46.79,63.903 46.79,63.907 46.79,63.91C46.79,66.817 44.398,69.21 41.49,69.21C38.583,69.21 36.19,66.817 36.19,63.91C36.19,61.002 38.583,58.61 41.49,58.61C41.493,58.61 41.497,58.61 41.5,58.61L46.79,58.61L46.79,44.49L41.5,44.49C41.497,44.49 41.493,44.49 41.49,44.49C30.837,44.49 22.07,53.257 22.07,63.91C22.07,74.563 30.837,83.33 41.49,83.33C52.143,83.33 60.91,74.563 60.91,63.91C60.91,63.907 60.91,63.903 60.91,63.9L60.91,58.61L46.79,58.61L46.79,63.9Z" style="fill:white;fill-rule:nonzero;"/>
                <path d="M66.2,37.43L82.08,37.43L82.08,23.32L66.2,23.32C55.556,23.331 46.801,32.086 46.79,42.73L46.79,44.49L60.91,44.49L60.91,42.73C60.915,39.828 63.298,37.441 66.2,37.43Z" style="fill:white;fill-rule:nonzero;"/>
                <rect x="46.79" y="44.49" width="14.12" height="14.12" style="fill:rgb(22,255,153);fill-rule:nonzero;"/>
                <g transform="matrix(0.810949,0,0,0.828552,23.5436,-77.6726)">
                    <g transform="matrix(78.7292,0,0,78.7292,279,185)">
                        <path d="M0.587,-0.113L0.587,-0.044C0.531,-0.008 0.468,0.01 0.397,0.01C0.298,0.01 0.215,-0.023 0.148,-0.091C0.081,-0.158 0.047,-0.241 0.047,-0.34C0.047,-0.439 0.081,-0.523 0.148,-0.59C0.215,-0.657 0.298,-0.69 0.397,-0.69C0.468,-0.69 0.531,-0.672 0.587,-0.636L0.587,-0.566C0.535,-0.611 0.472,-0.633 0.397,-0.633C0.315,-0.633 0.246,-0.605 0.191,-0.549C0.136,-0.492 0.108,-0.423 0.108,-0.34C0.108,-0.257 0.136,-0.188 0.191,-0.132C0.246,-0.075 0.315,-0.047 0.397,-0.047C0.471,-0.047 0.534,-0.069 0.587,-0.113Z" style="fill-rule:nonzero;"/>
                    </g>
                    <g transform="matrix(78.7292,0,0,78.7292,329.072,185)">
                        <path d="M0.45,-0L0.095,-0L0.095,-0.68L0.153,-0.68L0.153,-0.054L0.45,-0.054L0.45,-0Z" style="fill-rule:nonzero;"/>
                    </g>
                    <g transform="matrix(78.7292,0,0,78.7292,365.838,185)">
                        <rect x="0.095" y="-0.68" width="0.058" height="0.68" style="fill-rule:nonzero;"/>
                    </g>
                </g>
            </g>
        </g>
    </g>
</svg>
