<?xml version="1.0" encoding="UTF-8"?>
<svg width="1941px" height="424px" viewBox="0 0 1941 424" version="1.1" xmlns="http://www.w3.org/2000/svg" xmlns:xlink="http://www.w3.org/1999/xlink">
    <title>Group 2</title>
    <g id="Page-1" stroke="none" stroke-width="1" fill="none" fill-rule="evenodd">
        <g id="Group-2">
            <path d="M211.692357,0.411243609 L1711.04045,0.411243609 C1740.02292,0.411243609 1767.57979,12.985352 1786.57334,34.8766507 L1922.99913,192.116266 C1932.78597,203.396242 1932.78597,220.157046 1922.99913,231.437022 L1786.57334,388.676637 C1767.57979,410.567936 1740.02292,423.142044 1711.04045,423.142044 L211.692357,423.142044 L211.692357,423.142044 L211.692357,0.411243609 Z" id="Path" fill="#16FF99"></path>
            <text id="CLI" font-family="Helvetica-Light, Helvetica" font-size="280" font-weight="300" fill="#000000">
                <tspan x="1128" y="304">CLI</tspan>
            </text>
            <path d="M1679.12712,120.254243 L1766.78188,210.863661 C1767.53194,211.639002 1767.53194,212.869485 1766.78188,213.644826 L1679.12712,304.254243 L1679.12712,304.254243" id="Path-2" stroke="#FFFFFF" stroke-width="41"></path>
            <path d="M613.136404,196.444158 L583.280832,196.444158 L583.280832,308 L541.557207,308 L541.557207,196.444158 L520,196.444158 L520,160.606843 L541.557207,160.606843 L541.557207,146.662363 C541.557207,110.546159 564.041605,92 598.254978,92 C603.545114,92.0503451 608.814335,92.6737186 613.970877,93.859264 L613.970877,135.692705 C609.453586,133.901509 604.642522,132.971444 599.784844,132.950291 C595.36205,132.611991 591.012406,134.226827 587.875931,137.371557 C584.739456,140.516287 583.128859,144.877379 583.46627,149.311814 L583.46627,160.420917 L613.321842,160.420917 L613.136404,196.444158 Z M676,308 L633.812779,308 L633.812779,95.1142673 L676,95.1142673 L676,308 Z" id="Shape" fill="#000000" fill-rule="nonzero"></path>
            <path d="M769.862739,151.006103 C802.243302,150.949805 831.464175,170.419501 843.881701,200.324503 C856.299226,230.229504 849.463973,264.670872 826.567423,287.567423 C803.670872,310.463973 769.229504,317.299226 739.324503,304.881701 C709.419501,292.464175 689.949805,263.243302 690.006103,230.862739 C689.741826,209.603526 698.070378,189.137767 713.104073,174.104073 C728.137767,159.070378 748.603526,150.741826 769.862739,151.006103 L769.862739,151.006103 Z M769.862739,269.979034 C791.439343,269.979034 806.983778,252.114534 806.983778,230.862739 C806.983778,209.610944 791.578547,191.97845 769.862739,191.97845 C748.846834,192.70346 732.184684,209.950335 732.184684,230.978742 C732.184684,252.007149 748.846834,269.254024 769.862739,269.979034 L769.862739,269.979034 Z" id="Shape" fill="#000000" fill-rule="nonzero"></path>
            <polygon id="Path" fill="#000000" fill-rule="nonzero" points="893.352987 154 920.489262 256.356495 947.672003 175.076133 940.283873 154.046526 982.103475 154.046526 1017.92893 256.403021 1044.50761 154.046526 1088 154.046526 1042.3237 308 998.506052 308 967.931277 223.602417 939.540414 308 895.397501 308 850 154.046526"></polygon>
            <g id="Group" fill-rule="nonzero">
                <circle id="Oval" fill="#00EF8B" cx="212" cy="212" r="212"></circle>
                <rect id="Rectangle" fill="#FFFFFF" x="245" y="178" width="60" height="60"></rect>
                <path d="M185.016314,261.456324 C185.033494,270.570548 179.554169,278.796089 171.136999,282.291893 C162.71983,285.787696 153.025383,283.8641 146.580642,277.419358 C140.1359,270.974617 138.212304,261.28017 141.708107,252.863001 C145.203911,244.445831 153.429452,238.966506 162.543676,238.983686 L185.016314,238.983686 L185.016314,179 L162.543676,179 C129.168303,178.982829 99.0705276,199.076715 86.2903872,229.908255 C73.5102467,260.739794 80.5657932,296.234295 104.165749,319.834251 C127.765705,343.434207 163.260206,350.489753 194.091745,337.709613 C224.923285,324.929472 245.017171,294.831697 245,261.456324 L245,238.983686 L185.016314,238.983686 L185.016314,261.456324 Z" id="Path" fill="#FFFFFF"></path>
                <path d="M268.502125,149.31932 L336,149.31932 L336,90 L268.502125,90 C222.956883,90.0463454 186.046857,126.553156 186,171.60085 L186,179 L246.017002,179 L246.017002,171.60085 C246.040295,159.321052 256.086764,149.36555 268.502125,149.31932 Z" id="Path" fill="#FFFFFF"></path>
                <polygon id="Path" fill="#16FF99" points="186 238 246 238 246 238 246 178 246 178 186 178"></polygon>
            </g>
        </g>
    </g>
</svg>