<?xml version="1.0" encoding="UTF-8"?>
<svg width="3126px" height="650px" viewBox="0 0 3126 650" version="1.1" xmlns="http://www.w3.org/2000/svg" xmlns:xlink="http://www.w3.org/1999/xlink">
    <title>Group 3</title>
    <g id="Page-1" stroke="none" stroke-width="1" fill="none" fill-rule="evenodd">
        <g id="Group-3">
            <rect id="Rectangle" fill="#FFFFFF" x="0" y="0" width="3126" height="650"></rect>
            <g id="Group-2" transform="translate(0.000000, 113.000000)">
                <path d="M211.692357,0.411243609 L1711.04045,0.411243609 C1740.02292,0.411243609 1767.57979,12.985352 1786.57334,34.8766507 L1922.99913,192.116266 C1932.78597,203.396242 1932.78597,220.157046 1922.99913,231.437022 L1786.57334,388.676637 C1767.57979,410.567936 1740.02292,423.142044 1711.04045,423.142044 L211.692357,423.142044 L211.692357,423.142044 L211.692357,0.411243609 Z" id="Path" fill="#16FF99"></path>
                <text id="CLI" font-family="Helvetica-Light, Helvetica" font-size="240" font-weight="300" fill="#000000">
                    <tspan x="1090" y="290">CLI</tspan>
                </text>
                <path d="M1679.12712,112.254243 L1766.78188,202.863661 C1767.53194,203.639002 1767.53194,204.869485 1766.78188,205.644826 L1679.12712,296.254243 L1679.12712,296.254243" id="Path-2" stroke="#FFFFFF" stroke-width="41"></path>
                <path d="M644.298471,197.036798 L619.199309,197.036798 L619.199309,290 L584.122842,290 L584.122842,197.036798 L566,197.036798 L566,167.172369 L584.122842,167.172369 L584.122842,155.551969 C584.122842,125.455132 603.02516,110 631.787864,110 C636.235208,110.041954 640.664968,110.561432 645,111.549387 L645,146.410587 C641.202377,144.917924 637.157783,144.14287 633.074001,144.125242 C629.35582,143.843326 625.699135,145.189022 623.062344,147.809631 C620.425554,150.43024 619.071548,154.064483 619.355205,157.759845 L619.355205,167.017431 L644.454366,167.017431 L644.298471,197.036798 Z M697,291 L662,291 L662,113 L697,113 L697,291 Z" id="Shape" fill="#000000" fill-rule="nonzero"></path>
                <path d="M775.885044,159.005111 C803.003765,158.957962 827.476247,175.263832 837.875924,200.309271 C848.275602,225.35471 842.551077,254.199355 823.375216,273.375216 C804.199355,292.551077 775.35471,298.275602 750.309271,287.875924 C725.263832,277.476247 708.957962,253.003765 709.005111,225.885044 C708.783779,208.080453 715.758942,190.94038 728.349661,178.349661 C740.94038,165.758942 758.080453,158.783779 775.885044,159.005111 L775.885044,159.005111 Z M775.734575,259 C793.907603,259 807,244.113028 807,226.403331 C807,208.693635 794.024849,194 775.734575,194 C758.033799,194.60417 744,208.976459 744,226.5 C744,244.023541 758.033799,258.39583 775.734575,259 L775.734575,259 Z" id="Shape" fill="#000000" fill-rule="nonzero"></path>
                <polygon id="Path" fill="#000000" fill-rule="nonzero" points="878.664825 161.808219 901.340342 247.338989 924.054688 179.419782 917.881045 161.847097 952.826192 161.847097 982.762534 247.377867 1004.97212 161.847097 1041.31507 161.847097 1003.1472 290.493151 966.532455 290.493151 940.98367 219.969143 917.259798 290.493151 880.373254 290.493151 842.438356 161.847097"></polygon>
                <g id="Group" fill-rule="nonzero">
                    <circle id="Oval" fill="#00EF8B" cx="212" cy="212" r="212"></circle>
                    <rect id="Rectangle" fill="#FFFFFF" x="245" y="178" width="60" height="60"></rect>
                    <path d="M185.016314,261.456324 C185.033494,270.570548 179.554169,278.796089 171.136999,282.291893 C162.71983,285.787696 153.025383,283.8641 146.580642,277.419358 C140.1359,270.974617 138.212304,261.28017 141.708107,252.863001 C145.203911,244.445831 153.429452,238.966506 162.543676,238.983686 L185.016314,238.983686 L185.016314,179 L162.543676,179 C129.168303,178.982829 99.0705276,199.076715 86.2903872,229.908255 C73.5102467,260.739794 80.5657932,296.234295 104.165749,319.834251 C127.765705,343.434207 163.260206,350.489753 194.091745,337.709613 C224.923285,324.929472 245.017171,294.831697 245,261.456324 L245,238.983686 L185.016314,238.983686 L185.016314,261.456324 Z" id="Path" fill="#FFFFFF"></path>
                    <path d="M268.502125,149.31932 L336,149.31932 L336,90 L268.502125,90 C222.956883,90.0463454 186.046857,126.553156 186,171.60085 L186,179 L246.017002,179 L246.017002,171.60085 C246.040295,159.321052 256.086764,149.36555 268.502125,149.31932 Z" id="Path" fill="#FFFFFF"></path>
                    <polygon id="Path" fill="#16FF99" points="186 238 246 238 246 238 246 178 246 178 186 178"></polygon>
                </g>
            </g>
        </g>
    </g>
</svg>